# MagicaVoxel @ Ephtracy

# group
o 

# material
mtllib point item.mtl
usemtl palette

# normals
vn -1 0 0
vn 1 0 0
vn 0 0 1
vn 0 0 -1
vn 0 -1 0
vn 0 1 0

# texcoords
vt 0.306641 0.5
vt 0.955078 0.5

# verts
v -0.5 0 0.5
v -0.5 0 -0.5
v -0.5 0.2 -0.1
v -0.5 0.2 -0.2
v -0.5 0.4 0.3
v -0.5 0.4 -0.1
v -0.5 0.5 0.2
v -0.5 0.5 -0.1
v -0.5 0.6 0.2
v -0.5 0.6 -0.1
v -0.5 0.7 0.3
v -0.5 0.7 -0.2
v -0.5 1 0.5
v -0.5 1 -0.5
v 0.5 0 0.5
v 0.5 0 -0.5
v 0.5 1 0.5
v 0.5 1 -0.5
v -0.5 0 0.5
v -0.5 1 0.5
v -0.3 0.2 0.5
v -0.3 0.7 0.5
v -0.2 0.2 0.5
v -0.2 0.4 0.5
v -0.2 0.5 0.5
v -0.2 0.6 0.5
v 0.2 0.5 0.5
v 0.2 0.6 0.5
v 0.3 0.4 0.5
v 0.3 0.7 0.5
v 0.5 0 0.5
v 0.5 1 0.5
v -0.5 0 -0.5
v -0.5 1 -0.5
v 0.5 0 -0.5
v 0.5 1 -0.5
v -0.5 0 0.5
v 0.5 0 0.5
v -0.5 0 -0.5
v 0.5 0 -0.5
v -0.5 1 0.5
v 0.5 1 0.5
v -0.5 1 -0.5
v 0.5 1 -0.5

# faces
f 3/1/1 2/1/1 1/1/1
f 4/1/1 2/1/1 3/1/1
f 5/1/1 3/1/1 1/1/1
f 6/2/1 4/2/1 3/2/1
f 6/1/1 3/1/1 5/1/1
f 7/2/1 6/2/1 5/2/1
f 8/2/1 4/2/1 6/2/1
f 8/2/1 6/2/1 7/2/1
f 9/2/1 7/2/1 5/2/1
f 9/1/1 8/1/1 7/1/1
f 10/2/1 4/2/1 8/2/1
f 10/1/1 8/1/1 9/1/1
f 11/1/1 5/1/1 1/1/1
f 11/2/1 9/2/1 5/2/1
f 11/2/1 10/2/1 9/2/1
f 12/1/1 2/1/1 4/1/1
f 12/2/1 10/2/1 11/2/1
f 12/2/1 4/2/1 10/2/1
f 13/1/1 11/1/1 1/1/1
f 13/1/1 12/1/1 11/1/1
f 14/1/1 2/1/1 12/1/1
f 14/1/1 12/1/1 13/1/1
f 15/1/2 16/1/2 17/1/2
f 17/1/2 16/1/2 18/1/2
f 21/1/3 20/1/3 19/1/3
f 22/1/3 20/1/3 21/1/3
f 23/1/3 21/1/3 19/1/3
f 23/2/3 22/2/3 21/2/3
f 24/2/3 22/2/3 23/2/3
f 25/2/3 22/2/3 24/2/3
f 26/2/3 22/2/3 25/2/3
f 27/2/3 25/2/3 24/2/3
f 27/1/3 26/1/3 25/1/3
f 28/2/3 22/2/3 26/2/3
f 28/1/3 26/1/3 27/1/3
f 29/1/3 24/1/3 23/1/3
f 29/2/3 27/2/3 24/2/3
f 29/2/3 28/2/3 27/2/3
f 30/1/3 20/1/3 22/1/3
f 30/2/3 28/2/3 29/2/3
f 30/2/3 22/2/3 28/2/3
f 31/1/3 29/1/3 23/1/3
f 31/1/3 23/1/3 19/1/3
f 31/1/3 30/1/3 29/1/3
f 32/1/3 20/1/3 30/1/3
f 32/1/3 30/1/3 31/1/3
f 33/1/4 34/1/4 35/1/4
f 35/1/4 34/1/4 36/1/4
f 39/1/5 38/1/5 37/1/5
f 40/1/5 38/1/5 39/1/5
f 41/1/6 42/1/6 43/1/6
f 43/1/6 42/1/6 44/1/6
